<?xml version="1.0" encoding="UTF-8" standalone="no"?>
<!DOCTYPE svg PUBLIC "-//W3C//DTD SVG 1.1//EN" "http://www.w3.org/Graphics/SVG/1.1/DTD/svg11.dtd">
<!-- 由 Microsoft Visio, SVG Export 生成 模式三示意图.svg 页-1 -->
<svg xmlns="http://www.w3.org/2000/svg" xmlns:xlink="http://www.w3.org/1999/xlink" xmlns:ev="http://www.w3.org/2001/xml-events"
		xmlns:v="http://schemas.microsoft.com/visio/2003/SVGExtensions/" width="8.8849in" height="2.94344in"
		viewBox="0 0 639.713 211.928" xml:space="preserve" color-interpolation-filters="sRGB" class="st19">
	<v:documentProperties v:langID="2052" v:metric="true" v:viewMarkup="false"/>

	<style type="text/css">
	<![CDATA[
		.st1 {fill:#4672c4;stroke:#c7c8c8;stroke-width:0.25}
		.st2 {fill:#feffff;font-family:等线;font-size:1.00001em;font-weight:bold}
		.st3 {fill:#feffff;font-family:等线;font-size:0.833336em;font-weight:bold}
		.st4 {marker-end:url(#mrkr5-21);marker-start:url(#mrkr5-19);stroke:#4672c4;stroke-linecap:round;stroke-linejoin:round;stroke-width:1}
		.st5 {fill:#4672c4;fill-opacity:1;stroke:#4672c4;stroke-opacity:1;stroke-width:0.28409090909091}
		.st6 {fill:#ffffff;stroke:none;stroke-linecap:butt;stroke-width:7.2}
		.st7 {fill:#3c63ac;font-family:等线;font-size:0.666664em;font-weight:bold}
		.st8 {fill:none;stroke:none;stroke-width:0.25}
		.st9 {fill:#ffffff;font-family:等线;font-size:1.00001em;font-weight:bold}
		.st10 {fill:#ed7d31;stroke:#c7c8c8;stroke-width:0.25}
		.st11 {font-size:1em}
		.st12 {fill:#000000;font-family:等线;font-size:0.666664em;font-weight:bold}
		.st13 {fill:#3d64ac;font-family:等线;font-size:0.666664em;font-weight:bold}
		.st14 {stroke:#ff0000;stroke-dasharray:7,5,0,5;stroke-linecap:round;stroke-linejoin:round;stroke-width:1}
		.st15 {fill:#ff0000;font-family:等线;font-size:1.16666em;font-weight:bold}
		.st16 {fill:#ffffff;stroke:none;stroke-width:0.25}
		.st17 {fill:#ff0000;font-family:等线;font-size:0.833336em;font-weight:bold}
		.st18 {fill:url(#grad0-89);stroke:#d06d29;stroke-dasharray:5.25,3.75;stroke-width:0.75}
		.st19 {fill:none;fill-rule:evenodd;font-size:12px;overflow:visible;stroke-linecap:square;stroke-miterlimit:3}
	]]>
	</style>

	<defs id="Patterns_And_Gradients">
		<linearGradient id="grad0-89" x1="0" y1="0" x2="1" y2="0" gradientTransform="rotate(60 0.5 0.5)">
			<stop offset="0" stop-color="#fbece7" stop-opacity="1"/>
			<stop offset="0.24" stop-color="#fdf5f3" stop-opacity="1"/>
			<stop offset="0.54" stop-color="#feffff" stop-opacity="1"/>
		</linearGradient>
	</defs>
	<defs id="Markers">
		<g id="lend5">
			<path d="M 2 1 L 0 0 L 1.98117 -0.993387 C 1.67173 -0.364515 1.67301 0.372641 1.98465 1.00043 " style="stroke:none"/>
		</g>
		<marker id="mrkr5-19" class="st5" v:arrowType="5" v:arrowSize="2" v:setback="5.8" refX="5.8" orient="auto"
				markerUnits="strokeWidth" overflow="visible">
			<use xlink:href="#lend5" transform="scale(3.52) "/>
		</marker>
		<marker id="mrkr5-21" class="st5" v:arrowType="5" v:arrowSize="2" v:setback="6.16" refX="-6.16" orient="auto"
				markerUnits="strokeWidth" overflow="visible">
			<use xlink:href="#lend5" transform="scale(-3.52,-3.52) "/>
		</marker>
	</defs>
	<g v:mID="0" v:index="1" v:groupContext="foregroundPage">
		<title>页-1</title>
		<v:pageProperties v:drawingScale="0.0393701" v:pageScale="0.0393701" v:drawingUnits="24" v:shadowOffsetX="8.50394"
				v:shadowOffsetY="-8.50394"/>
		<v:layer v:name="连接线" v:index="0"/>
		<g id="group73-1" transform="translate(94.6884,-48.6856)" v:mID="73" v:groupContext="group">
			<v:custProps>
				<v:cp v:nameU="ShapeClass" v:lbl="ShapeClass" v:prompt="" v:type="0" v:format="" v:sortKey="" v:invis="true"
						v:ask="false" v:langID="2052" v:cal="0" v:val="VT4(位置)"/>
				<v:cp v:nameU="ShapeType" v:lbl="ShapeType" v:prompt="" v:type="0" v:format="" v:sortKey="" v:invis="true"
						v:ask="false" v:langID="2052" v:cal="0" v:val="VT4(云)"/>
			</v:custProps>
			<v:userDefs>
				<v:ud v:nameU="visVersion" v:prompt="" v:val="VT0(15):26"/>
				<v:ud v:nameU="ShapeClass" v:prompt="" v:val="VT0(5):26"/>
				<v:ud v:nameU="SolSH" v:prompt="" v:val="VT15({BF0433D9-CD73-4EB5-8390-8653BE590246}):41"/>
				<v:ud v:nameU="visLegendShape" v:prompt="" v:val="VT0(2):26"/>
			</v:userDefs>
			<title>云.73</title>
			<g id="shape74-2" v:mID="74" v:groupContext="shape" transform="translate(0,-24.1898)">
				<title>工作表.74</title>
				<path d="M97.83 164.63 C97.22 159.27 92.35 155.08 86.36 155.08 C84.66 155.08 83.06 155.44 81.61 156.04 C78.79 150.78
							 72.97 146.92 62.03 147.23 C47.82 147.64 31 154.03 27.62 165.38 C23.57 166.15 20.97 168.35 19.41 171.27
							 C18.78 171.21 18.14 171.17 17.48 171.17 C8.13 171.17 0.94 177.99 0.53 186.4 C0 197.28 8.12 201.63 17.48
							 201.63 C18.82 201.63 20.11 201.48 21.36 201.22 C23.31 202.49 25.84 203.26 28.62 203.26 C31.19 203.26
							 33.55 202.6 35.43 201.49 C39.03 207.62 46.44 211.93 54.97 211.42 C63.96 210.9 69.35 208.99 72.53 206.03
							 C72.73 206.01 72.92 206.01 73.12 205.98 C83.16 204.7 87.58 202.09 89 197.81 C89.27 197.81 89.54 197.82
							 89.8 197.82 C102.83 197.82 113.39 194.01 113.39 180.69 C113.39 173.28 106.88 167.02 97.83 164.63 Z"
						class="st1"/>
			</g>
		</g>
		<g id="shape75-4" v:mID="75" v:groupContext="shape" transform="translate(301.095,-75.6147)">
			<title>正方形.75</title>
			<desc>音箱技能</desc>
			<v:userDefs>
				<v:ud v:nameU="visVersion" v:val="VT0(15):26"/>
			</v:userDefs>
			<v:textBlock v:margins="rect(4,4,4,4)" v:tabSpace="42.5197"/>
			<v:textRect cx="29.7638" cy="182.164" width="59.53" height="59.5276"/>
			<rect x="0" y="152.4" width="59.5276" height="59.5276" class="st1"/>
			<text x="5.76" y="185.76" class="st2" v:langID="2052"><v:paragraph v:horizAlign="1"/><v:tabList/>音箱技能</text>		</g>
		<g id="group76-7" transform="translate(0.25,-84.1186)" v:mID="76" v:groupContext="group">
			<v:userDefs>
				<v:ud v:nameU="visVersion" v:prompt="" v:val="VT0(15):26"/>
			</v:userDefs>
			<title>圆柱形.76</title>
			<desc>音箱</desc>
			<g id="shape77-8" v:mID="77" v:groupContext="shape">
				<title>工作表.77</title>
				<v:userDefs>
					<v:ud v:nameU="ControlHalfHeight" v:prompt="" v:val="VT0(0.11811023622047):24"/>
					<v:ud v:nameU="FillForegnd" v:prompt="" v:val="VT5(1)"/>
					<v:ud v:nameU="ControlHalfHeight" v:prompt="" v:val="VT0(0.059055117223317):1"/>
					<v:ud v:nameU="FillForegnd" v:prompt="" v:val="VT5(#4672c4)"/>
				</v:userDefs>
				<path d="M0 207.68 A21.2598 4.25197 -180 0 0 42.52 207.68 L42.52 173.66 L0 173.66 L0 207.68 Z" class="st1"/>
			</g>
			<g id="shape76-10" v:mID="76" v:groupContext="groupContent">
				<v:textBlock v:margins="rect(4,4,4,4)" v:tabSpace="42.5197"/>
				<v:textRect cx="21.2598" cy="190.668" width="42.52" height="42.5197"/>
				<ellipse cx="21.2598" cy="173.66" rx="21.2598" ry="4.25197" class="st1"/>
				<text x="11.26" y="193.67" class="st3" v:langID="2052"><v:paragraph v:horizAlign="1"/><v:tabList/>音箱</text>			</g>
		</g>
		<g id="shape78-13" v:mID="78" v:groupContext="shape" v:layerMember="0" transform="translate(42.7697,-98.2919)">
			<title>动态连接线.78</title>
			<path d="M5.8 204.84 L6.16 204.84 L48.35 204.84" class="st4"/>
		</g>
		<g id="shape79-22" v:mID="79" v:groupContext="shape" v:layerMember="0" transform="translate(208.011,-98.2919)">
			<title>动态连接线.79</title>
			<desc>HTTP</desc>
			<v:textBlock v:margins="rect(4,4,4,4)" v:tabSpace="42.5197"/>
			<v:textRect cx="46.5423" cy="204.841" width="40" height="17.6036"/>
			<path d="M5.8 204.84 L6.16 204.84 L86.92 204.84" class="st4"/>
			<rect v:rectContext="textBkgnd" x="36.8488" y="200.041" width="19.3867" height="9.59985" class="st6"/>
			<text x="36.85" y="207.24" class="st7" v:langID="2052"><v:paragraph v:horizAlign="1"/><v:tabList/>HTTP</text>		</g>
		<g id="shape80-31" v:mID="80" v:groupContext="shape" transform="translate(115.948,-95.3785)">
			<title>工作表.80</title>
			<desc>音箱云平台</desc>
			<v:textBlock v:margins="rect(4,4,4,4)" v:tabSpace="42.5197"/>
			<v:textRect cx="35.4331" cy="201.928" width="70.87" height="20"/>
			<rect x="0" y="191.928" width="70.8661" height="20" class="st8"/>
			<text x="5.43" y="205.53" class="st9" v:langID="2052"><v:paragraph v:horizAlign="1"/><v:tabList/>音箱云平台</text>		</g>
		<g id="shape81-34" v:mID="81" v:groupContext="shape" transform="translate(464.717,-75.6147)">
			<title>正方形.81</title>
			<desc>MQTT对接服务</desc>
			<v:userDefs>
				<v:ud v:nameU="visVersion" v:val="VT0(15):26"/>
			</v:userDefs>
			<v:textBlock v:margins="rect(4,4,4,4)" v:tabSpace="42.5197"/>
			<v:textRect cx="29.7638" cy="182.164" width="59.53" height="59.5276"/>
			<rect x="0" y="152.4" width="59.5276" height="59.5276" class="st10"/>
			<text x="7.06" y="178.56" class="st2" v:langID="2052"><v:paragraph v:horizAlign="1"/><v:tabList/>MQTT对<tspan x="11.76"
						dy="1.2em" class="st11">接服务</tspan></text>		</g>
		<g id="shape83-38" v:mID="83" v:groupContext="shape" transform="translate(579.935,-75.6147)">
			<title>正方形.83</title>
			<desc>音箱组件</desc>
			<v:userDefs>
				<v:ud v:nameU="visVersion" v:val="VT0(15):26"/>
			</v:userDefs>
			<v:textBlock v:margins="rect(4,4,4,4)" v:tabSpace="42.5197"/>
			<v:textRect cx="29.7638" cy="182.164" width="59.53" height="59.5276"/>
			<rect x="0" y="152.4" width="59.5276" height="59.5276" class="st10"/>
			<text x="5.76" y="185.76" class="st2" v:langID="2052"><v:paragraph v:horizAlign="1"/><v:tabList/>音箱组件</text>		</g>
		<g id="shape85-41" v:mID="85" v:groupContext="shape" transform="translate(219.935,-152.212)">
			<title>工作表.85</title>
			<desc>oauth消息</desc>
			<v:textBlock v:margins="rect(4,4,4,4)" v:tabSpace="42.5197"/>
			<v:textRect cx="25.5118" cy="201.928" width="51.03" height="20"/>
			<rect x="0" y="191.928" width="51.0236" height="20" class="st8"/>
			<text x="6.93" y="205.53" class="st12" v:langID="2052"><v:paragraph v:horizAlign="1"/><v:tabList/>oauth消息</text>		</g>
		<g id="shape86-44" v:mID="86" v:groupContext="shape" transform="translate(218.518,-78.2919)">
			<title>工作表.86</title>
			<desc>音箱命令消息</desc>
			<v:textBlock v:margins="rect(4,4,4,4)" v:tabSpace="42.5197"/>
			<v:textRect cx="41.1024" cy="201.928" width="82.21" height="20"/>
			<rect x="0" y="191.928" width="82.2047" height="20" class="st8"/>
			<text x="17.1" y="204.33" class="st12" v:langID="2052"><v:paragraph v:horizAlign="1"/><v:tabList/>音箱命令消息</text>		</g>
		<g id="shape89-47" v:mID="89" v:groupContext="shape" v:layerMember="0" transform="translate(524.245,-98.2919)">
			<title>动态连接线.89</title>
			<desc>直接调用</desc>
			<v:textBlock v:margins="rect(4,4,4,4)" v:tabSpace="42.5197"/>
			<v:textRect cx="27.845" cy="204.841" width="42.21" height="17.6036"/>
			<path d="M5.8 204.84 L6.16 204.84 L49.53 204.84" class="st4"/>
			<rect v:rectContext="textBkgnd" x="11.8452" y="200.041" width="31.9999" height="9.59985" class="st6"/>
			<text x="11.85" y="207.24" class="st13" v:langID="2052"><v:paragraph v:horizAlign="1"/><v:tabList/>直接调用</text>		</g>
		<g id="shape90-56" v:mID="90" v:groupContext="shape" transform="translate(511.904,-83.9611)">
			<title>工作表.90</title>
			<desc>音箱命令消息</desc>
			<v:textBlock v:margins="rect(4,4,4,4)" v:tabSpace="42.5197"/>
			<v:textRect cx="41.1024" cy="201.928" width="82.21" height="20"/>
			<rect x="0" y="191.928" width="82.2047" height="20" class="st8"/>
			<text x="17.1" y="205.53" class="st12" v:langID="2052"><v:paragraph v:horizAlign="1"/><v:tabList/>音箱命令消息</text>		</g>
		<g id="shape91-59" v:mID="91" v:groupContext="shape" transform="translate(630.288,8.91142) rotate(90)">
			<title>工作表.91</title>
			<path d="M0 211.93 L161.28 211.93" class="st14"/>
		</g>
		<g id="shape92-62" v:mID="92" v:groupContext="shape" transform="translate(353.163,-191.678)">
			<title>工作表.92</title>
			<desc>互联网← →家</desc>
			<v:textBlock v:margins="rect(4,4,4,4)" v:tabSpace="42.5197"/>
			<v:textRect cx="51.7696" cy="201.928" width="103.54" height="20"/>
			<rect x="0" y="191.928" width="103.539" height="20" class="st8"/>
			<text x="5.92" y="206.13" class="st15" v:langID="2052"><v:paragraph v:horizAlign="1"/><v:tabList/>互联网←   →家</text>		</g>
		<g id="shape93-65" v:mID="93" v:groupContext="shape" transform="translate(365.919,-142.071)">
			<title>工作表.93</title>
			<desc>使用MQTT转发消息 音箱命令消息</desc>
			<v:textBlock v:margins="rect(4,4,4,4)" v:tabSpace="42.5197"/>
			<v:textRect cx="50.3523" cy="201.928" width="100.71" height="20"/>
			<rect x="0" y="191.928" width="100.705" height="20" class="st16"/>
			<text x="6.43" y="198.93" class="st17" v:langID="2052"><v:paragraph v:horizAlign="1"/><v:tabList/>使用MQTT转发消息<v:newlineChar/><tspan
						x="10.35" dy="1.2em" class="st11">（</tspan>音箱命令消息）</text>		</g>
		<g id="shape103-69" v:mID="103" v:groupContext="shape" transform="translate(351.746,-78.2919)">
			<title>工作表.103</title>
			<desc>音箱命令消息</desc>
			<v:textBlock v:margins="rect(4,4,4,4)" v:tabSpace="42.5197"/>
			<v:textRect cx="41.1024" cy="201.928" width="82.21" height="20"/>
			<rect x="0" y="191.928" width="82.2047" height="20" class="st8"/>
			<text x="17.1" y="204.33" class="st12" v:langID="2052"><v:paragraph v:horizAlign="1"/><v:tabList/>音箱命令消息</text>		</g>
		<g id="shape116-72" v:mID="116" v:groupContext="shape" v:layerMember="0" transform="translate(151.381,-143.233)">
			<title>动态连接线.116</title>
			<desc>HTTP</desc>
			<v:textBlock v:margins="rect(4,4,4,4)" v:tabSpace="42.5197"/>
			<v:textRect cx="90.7426" cy="207.121" width="40" height="17.6036"/>
			<path d="M0 212.21 L0 211.85 L0 207.12 L179.48 207.12 L179.48 213.86" class="st4"/>
			<rect v:rectContext="textBkgnd" x="81.0492" y="202.321" width="19.3867" height="9.59985" class="st6"/>
			<text x="81.05" y="209.52" class="st7" v:langID="2052"><v:paragraph v:horizAlign="1"/><v:tabList/>HTTP</text>		</g>
		<g id="shape136-81" v:mID="136" v:groupContext="shape" transform="translate(10.0304,-23.785)">
			<title>正方形.136</title>
			<v:userDefs>
				<v:ud v:nameU="visVersion" v:val="VT0(15):26"/>
			</v:userDefs>
			<rect x="0" y="201.866" width="10.0622" height="10.0622" class="st10"/>
		</g>
		<g id="shape137-83" v:mID="137" v:groupContext="shape" transform="translate(22.9272,-18.8161)">
			<title>工作表.137</title>
			<desc>插件功能模块</desc>
			<v:textBlock v:margins="rect(4,4,4,4)" v:tabSpace="42.5197"/>
			<v:textRect cx="29.7638" cy="201.928" width="59.53" height="20"/>
			<rect x="0" y="191.928" width="59.5276" height="20" class="st8"/>
			<text x="5.76" y="205.53" class="st13" v:langID="2052"><v:paragraph v:horizAlign="1"/><v:tabList/>插件功能模块</text>		</g>
		<g id="shape138-86" v:mID="138" v:groupContext="shape" transform="translate(10.0304,-5.21892)">
			<title>正方形.138</title>
			<v:userDefs>
				<v:ud v:nameU="visVersion" v:val="VT0(15):26"/>
			</v:userDefs>
			<path d="M0 211.93 L10.06 211.93 L10.06 201.87 L0 201.87 L0 211.93 Z" class="st18"/>
		</g>
		<g id="shape139-90" v:mID="139" v:groupContext="shape" transform="translate(22.9272,-0.25)">
			<title>工作表.139</title>
			<desc>Home Assistant 功能模块</desc>
			<v:textBlock v:margins="rect(4,4,4,4)" v:tabSpace="42.5197"/>
			<v:textRect cx="51.7696" cy="201.928" width="103.54" height="20"/>
			<rect x="0" y="191.928" width="103.539" height="20" class="st8"/>
			<text x="6.36" y="205.53" class="st13" v:langID="2052"><v:paragraph v:horizAlign="1"/><v:tabList/>Home Assistant 功能模块</text>		</g>
		<g id="shape140-93" v:mID="140" v:groupContext="shape" transform="translate(5.91929,-34.9661)">
			<title>工作表.140</title>
			<desc>图例:</desc>
			<v:textBlock v:margins="rect(4,4,4,4)" v:tabSpace="42.5197"/>
			<v:textRect cx="29.7638" cy="201.928" width="59.53" height="20"/>
			<rect x="0" y="191.928" width="59.5276" height="20" class="st8"/>
			<text x="4" y="205.53" class="st13" v:langID="2052"><v:paragraph/><v:tabList/>图例:</text>		</g>
		<g id="shape141-96" v:mID="141" v:groupContext="shape" v:layerMember="0" transform="translate(360.623,-98.2919)">
			<title>动态连接线.141</title>
			<desc>MQTT</desc>
			<v:textBlock v:margins="rect(4,4,4,4)" v:tabSpace="42.5197"/>
			<v:textRect cx="52.0472" cy="204.841" width="40" height="17.6036"/>
			<path d="M5.8 204.84 L6.16 204.84 L97.93 204.84" class="st4"/>
			<rect v:rectContext="textBkgnd" x="40.9124" y="200.041" width="22.2696" height="9.59985" class="st6"/>
			<text x="40.91" y="207.24" class="st13" v:langID="2052"><v:paragraph v:horizAlign="1"/><v:tabList/>MQTT</text>		</g>
		<g id="shape146-105" v:mID="146" v:groupContext="shape" transform="translate(31.4311,-78.2919)">
			<title>工作表.146</title>
			<desc>音箱命令消息</desc>
			<v:textBlock v:margins="rect(4,4,4,4)" v:tabSpace="42.5197"/>
			<v:textRect cx="41.1024" cy="201.928" width="82.21" height="20"/>
			<rect x="0" y="191.928" width="82.2047" height="20" class="st8"/>
			<text x="17.1" y="204.33" class="st12" v:langID="2052"><v:paragraph v:horizAlign="1"/><v:tabList/>音箱命令消息</text>		</g>
	</g>
</svg>
