<?xml version="1.0" encoding="UTF-8" standalone="no"?>
<!DOCTYPE svg PUBLIC "-//W3C//DTD SVG 1.1//EN" "http://www.w3.org/Graphics/SVG/1.1/DTD/svg11.dtd">
<!-- 由 Microsoft Visio, SVG Export 生成 模式二示意图.svg 页-1 -->
<svg xmlns="http://www.w3.org/2000/svg" xmlns:xlink="http://www.w3.org/1999/xlink" xmlns:ev="http://www.w3.org/2001/xml-events"
		xmlns:v="http://schemas.microsoft.com/visio/2003/SVGExtensions/" width="8.89184in" height="2.9998in"
		viewBox="0 0 640.213 215.986" xml:space="preserve" color-interpolation-filters="sRGB" class="st20">
	<v:documentProperties v:langID="2052" v:metric="true" v:viewMarkup="false"/>

	<style type="text/css">
	<![CDATA[
		.st1 {fill:#4672c4;stroke:#c7c8c8;stroke-width:0.25}
		.st2 {fill:#feffff;font-family:等线;font-size:1.00001em;font-weight:bold}
		.st3 {fill:#feffff;font-family:等线;font-size:0.833336em;font-weight:bold}
		.st4 {marker-end:url(#mrkr5-21);marker-start:url(#mrkr5-19);stroke:#4672c4;stroke-linecap:round;stroke-linejoin:round;stroke-width:1}
		.st5 {fill:#4672c4;fill-opacity:1;stroke:#4672c4;stroke-opacity:1;stroke-width:0.28409090909091}
		.st6 {fill:#ffffff;stroke:none;stroke-linecap:butt;stroke-width:7.2}
		.st7 {fill:#3c63ac;font-family:等线;font-size:0.666664em;font-weight:bold}
		.st8 {fill:none;stroke:none;stroke-width:0.25}
		.st9 {fill:#ffffff;font-family:等线;font-size:1.00001em;font-weight:bold}
		.st10 {fill:#ed7d31;stroke:#c7c8c8;stroke-width:0.25}
		.st11 {font-size:1em}
		.st12 {fill:url(#grad0-45);stroke:#d06d29;stroke-dasharray:5.25,3.75;stroke-width:0.75}
		.st13 {fill:#d16d2a;font-family:等线;font-size:1.00001em;font-weight:bold}
		.st14 {fill:#000000;font-family:等线;font-size:0.666664em;font-weight:bold}
		.st15 {fill:#3d64ac;font-family:等线;font-size:0.666664em;font-weight:bold}
		.st16 {stroke:#ff0000;stroke-dasharray:7,5,0,5;stroke-linecap:round;stroke-linejoin:round;stroke-width:1}
		.st17 {fill:#ff0000;font-family:等线;font-size:1.16666em;font-weight:bold}
		.st18 {fill:#ffffff;stroke:none;stroke-width:0.25}
		.st19 {fill:#ff0000;font-family:等线;font-size:0.833336em;font-weight:bold}
		.st20 {fill:none;fill-rule:evenodd;font-size:12px;overflow:visible;stroke-linecap:square;stroke-miterlimit:3}
	]]>
	</style>

	<defs id="Patterns_And_Gradients">
		<linearGradient id="grad0-45" x1="0" y1="0" x2="1" y2="0" gradientTransform="rotate(60 0.5 0.5)">
			<stop offset="0" stop-color="#fbece7" stop-opacity="1"/>
			<stop offset="0.24" stop-color="#fdf5f3" stop-opacity="1"/>
			<stop offset="0.54" stop-color="#feffff" stop-opacity="1"/>
		</linearGradient>
	</defs>
	<defs id="Markers">
		<g id="lend5">
			<path d="M 2 1 L 0 0 L 1.98117 -0.993387 C 1.67173 -0.364515 1.67301 0.372641 1.98465 1.00043 " style="stroke:none"/>
		</g>
		<marker id="mrkr5-19" class="st5" v:arrowType="5" v:arrowSize="2" v:setback="5.8" refX="5.8" orient="auto"
				markerUnits="strokeWidth" overflow="visible">
			<use xlink:href="#lend5" transform="scale(3.52) "/>
		</marker>
		<marker id="mrkr5-21" class="st5" v:arrowType="5" v:arrowSize="2" v:setback="6.16" refX="-6.16" orient="auto"
				markerUnits="strokeWidth" overflow="visible">
			<use xlink:href="#lend5" transform="scale(-3.52,-3.52) "/>
		</marker>
	</defs>
	<g v:mID="0" v:index="1" v:groupContext="foregroundPage">
		<title>页-1</title>
		<v:pageProperties v:drawingScale="0.0393701" v:pageScale="0.0393701" v:drawingUnits="24" v:shadowOffsetX="8.50394"
				v:shadowOffsetY="-8.50394"/>
		<v:layer v:name="连接线" v:index="0"/>
		<g id="group11-1" transform="translate(94.6884,-47.9914)" v:mID="11" v:groupContext="group">
			<v:custProps>
				<v:cp v:nameU="ShapeClass" v:lbl="ShapeClass" v:prompt="" v:type="0" v:format="" v:sortKey="" v:invis="true"
						v:ask="false" v:langID="2052" v:cal="0" v:val="VT4(位置)"/>
				<v:cp v:nameU="ShapeType" v:lbl="ShapeType" v:prompt="" v:type="0" v:format="" v:sortKey="" v:invis="true"
						v:ask="false" v:langID="2052" v:cal="0" v:val="VT4(云)"/>
			</v:custProps>
			<v:userDefs>
				<v:ud v:nameU="visVersion" v:prompt="" v:val="VT0(15):26"/>
				<v:ud v:nameU="ShapeClass" v:prompt="" v:val="VT0(5):26"/>
				<v:ud v:nameU="SolSH" v:prompt="" v:val="VT15({BF0433D9-CD73-4EB5-8390-8653BE590246}):41"/>
				<v:ud v:nameU="visLegendShape" v:prompt="" v:val="VT0(2):26"/>
			</v:userDefs>
			<title>云.11</title>
			<g id="shape12-2" v:mID="12" v:groupContext="shape" transform="translate(0,-24.1898)">
				<title>工作表.12</title>
				<path d="M97.83 168.69 C97.22 163.33 92.35 159.14 86.36 159.14 C84.66 159.14 83.06 159.5 81.61 160.1 C78.79 154.83
							 72.97 150.98 62.03 151.29 C47.82 151.7 31 158.09 27.62 169.44 C23.57 170.21 20.97 172.4 19.41 175.33
							 C18.78 175.26 18.14 175.23 17.48 175.23 C8.13 175.23 0.94 182.05 0.53 190.46 C0 201.33 8.12 205.69 17.48
							 205.69 C18.82 205.69 20.11 205.54 21.36 205.28 C23.31 206.54 25.84 207.32 28.62 207.32 C31.19 207.32
							 33.55 206.65 35.43 205.54 C39.03 211.67 46.44 215.99 54.97 215.48 C63.96 214.96 69.35 213.04 72.53 210.09
							 C72.73 210.07 72.92 210.07 73.12 210.04 C83.16 208.75 87.58 206.15 89 201.86 C89.27 201.87 89.54 201.88
							 89.8 201.88 C102.83 201.88 113.39 198.07 113.39 184.74 C113.39 177.34 106.88 171.08 97.83 168.69 Z"
						class="st1"/>
			</g>
		</g>
		<g id="shape13-4" v:mID="13" v:groupContext="shape" transform="translate(301.095,-74.9205)">
			<title>正方形.13</title>
			<desc>音箱技能</desc>
			<v:userDefs>
				<v:ud v:nameU="visVersion" v:val="VT0(15):26"/>
			</v:userDefs>
			<v:textBlock v:margins="rect(4,4,4,4)" v:tabSpace="42.5197"/>
			<v:textRect cx="29.7638" cy="186.222" width="59.53" height="59.5276"/>
			<rect x="0" y="156.458" width="59.5276" height="59.5276" class="st1"/>
			<text x="5.76" y="189.82" class="st2" v:langID="2052"><v:paragraph v:horizAlign="1"/><v:tabList/>音箱技能</text>		</g>
		<g id="group14-7" transform="translate(0.25,-83.4245)" v:mID="14" v:groupContext="group">
			<v:userDefs>
				<v:ud v:nameU="visVersion" v:prompt="" v:val="VT0(15):26"/>
			</v:userDefs>
			<title>圆柱形.14</title>
			<desc>音箱</desc>
			<g id="shape15-8" v:mID="15" v:groupContext="shape">
				<title>工作表.15</title>
				<v:userDefs>
					<v:ud v:nameU="ControlHalfHeight" v:prompt="" v:val="VT0(0.11811023622047):24"/>
					<v:ud v:nameU="FillForegnd" v:prompt="" v:val="VT5(1)"/>
					<v:ud v:nameU="ControlHalfHeight" v:prompt="" v:val="VT0(0.059055117223317):1"/>
					<v:ud v:nameU="FillForegnd" v:prompt="" v:val="VT5(#4672c4)"/>
				</v:userDefs>
				<path d="M0 211.73 A21.2598 4.25197 -180 0 0 42.52 211.73 L42.52 177.72 L0 177.72 L0 211.73 Z" class="st1"/>
			</g>
			<g id="shape14-10" v:mID="14" v:groupContext="groupContent">
				<v:textBlock v:margins="rect(4,4,4,4)" v:tabSpace="42.5197"/>
				<v:textRect cx="21.2598" cy="194.726" width="42.52" height="42.5197"/>
				<ellipse cx="21.2598" cy="177.718" rx="21.2598" ry="4.25197" class="st1"/>
				<text x="11.26" y="197.73" class="st3" v:langID="2052"><v:paragraph v:horizAlign="1"/><v:tabList/>音箱</text>			</g>
		</g>
		<g id="shape17-13" v:mID="17" v:groupContext="shape" v:layerMember="0" transform="translate(42.7697,-97.5977)">
			<title>动态连接线.17</title>
			<path d="M5.8 208.9 L6.16 208.9 L48.35 208.9" class="st4"/>
		</g>
		<g id="shape18-22" v:mID="18" v:groupContext="shape" v:layerMember="0" transform="translate(208.011,-97.5977)">
			<title>动态连接线.18</title>
			<desc>HTTP</desc>
			<v:textBlock v:margins="rect(4,4,4,4)" v:tabSpace="42.5197"/>
			<v:textRect cx="46.5423" cy="208.899" width="40" height="17.6036"/>
			<path d="M5.8 208.9 L6.16 208.9 L86.92 208.9" class="st4"/>
			<rect v:rectContext="textBkgnd" x="36.8488" y="204.099" width="19.3867" height="9.59985" class="st6"/>
			<text x="36.85" y="211.3" class="st7" v:langID="2052"><v:paragraph v:horizAlign="1"/><v:tabList/>HTTP</text>		</g>
		<g id="shape19-31" v:mID="19" v:groupContext="shape" transform="translate(115.948,-94.6843)">
			<title>工作表.19</title>
			<desc>音箱云平台</desc>
			<v:textBlock v:margins="rect(4,4,4,4)" v:tabSpace="42.5197"/>
			<v:textRect cx="35.4331" cy="205.986" width="70.87" height="20"/>
			<rect x="0" y="195.986" width="70.8661" height="20" class="st8"/>
			<text x="5.43" y="209.59" class="st9" v:langID="2052"><v:paragraph v:horizAlign="1"/><v:tabList/>音箱云平台</text>		</g>
		<g id="shape20-34" v:mID="20" v:groupContext="shape" transform="translate(464.717,-74.9205)">
			<title>正方形.20</title>
			<desc>MQTT对接服务</desc>
			<v:userDefs>
				<v:ud v:nameU="visVersion" v:val="VT0(15):26"/>
			</v:userDefs>
			<v:textBlock v:margins="rect(4,4,4,4)" v:tabSpace="42.5197"/>
			<v:textRect cx="29.7638" cy="186.222" width="59.53" height="59.5276"/>
			<rect x="0" y="156.458" width="59.5276" height="59.5276" class="st10"/>
			<text x="7.06" y="182.62" class="st2" v:langID="2052"><v:paragraph v:horizAlign="1"/><v:tabList/>MQTT对<tspan x="11.76"
						dy="1.2em" class="st11">接服务</tspan></text>		</g>
		<g id="shape32-38" v:mID="32" v:groupContext="shape" transform="translate(579.935,-74.9205)">
			<title>正方形.32</title>
			<desc>音箱组件 HTTP</desc>
			<v:userDefs>
				<v:ud v:nameU="visVersion" v:val="VT0(15):26"/>
			</v:userDefs>
			<v:textBlock v:margins="rect(4,4,4,4)" v:tabSpace="42.5197"/>
			<v:textRect cx="29.7638" cy="186.222" width="59.53" height="59.5276"/>
			<rect x="0" y="156.458" width="59.5276" height="59.5276" class="st10"/>
			<text x="5.76" y="182.62" class="st2" v:langID="2052"><v:paragraph v:horizAlign="1"/><v:tabList/>音箱组件<v:newlineChar/><tspan
						x="15.22" dy="1.2em" class="st11">HTTP</tspan></text>		</g>
		<g id="shape37-42" v:mID="37" v:groupContext="shape" transform="translate(579.935,-155.708)">
			<title>正方形.37</title>
			<desc>Oauth</desc>
			<v:userDefs>
				<v:ud v:nameU="visVersion" v:val="VT0(15):26"/>
			</v:userDefs>
			<v:textBlock v:margins="rect(4,4,4,4)" v:tabSpace="42.5197"/>
			<v:textRect cx="29.7638" cy="186.222" width="59.53" height="59.5276"/>
			<path d="M0 215.99 L59.53 215.99 L59.53 156.46 L0 156.46 L0 215.99 Z" class="st12"/>
			<text x="12.94" y="189.82" class="st13" v:langID="2052"><v:paragraph v:horizAlign="1"/><v:tabList/>Oauth</text>		</g>
		<g id="shape44-47" v:mID="44" v:groupContext="shape" transform="translate(232.691,-111.771)">
			<title>工作表.44</title>
			<desc>oauth消息</desc>
			<v:textBlock v:margins="rect(4,4,4,4)" v:tabSpace="42.5197"/>
			<v:textRect cx="25.5118" cy="205.986" width="51.03" height="20"/>
			<rect x="0" y="195.986" width="51.0236" height="20" class="st8"/>
			<text x="6.93" y="209.59" class="st14" v:langID="2052"><v:paragraph v:horizAlign="1"/><v:tabList/>oauth消息</text>		</g>
		<g id="shape45-50" v:mID="45" v:groupContext="shape" transform="translate(218.518,-77.5977)">
			<title>工作表.45</title>
			<desc>音箱命令消息</desc>
			<v:textBlock v:margins="rect(4,4,4,4)" v:tabSpace="42.5197"/>
			<v:textRect cx="41.1024" cy="205.986" width="82.21" height="20"/>
			<rect x="0" y="195.986" width="82.2047" height="20" class="st8"/>
			<text x="17.1" y="208.39" class="st14" v:langID="2052"><v:paragraph v:horizAlign="1"/><v:tabList/>音箱命令消息</text>		</g>
		<g id="shape46-53" v:mID="46" v:groupContext="shape" transform="translate(484.974,-190.283)">
			<title>工作表.46</title>
			<desc>oauth消息</desc>
			<v:textBlock v:margins="rect(4,4,4,4)" v:tabSpace="42.5197"/>
			<v:textRect cx="41.1024" cy="205.986" width="82.21" height="20"/>
			<rect x="0" y="195.986" width="82.2047" height="20" class="st8"/>
			<text x="22.52" y="209.59" class="st14" v:langID="2052"><v:paragraph v:horizAlign="1"/><v:tabList/>oauth消息</text>		</g>
		<g id="shape47-56" v:mID="47" v:groupContext="shape" v:layerMember="0" transform="translate(494.481,-134.448)">
			<title>动态连接线.47</title>
			<desc>HTTP</desc>
			<v:textBlock v:margins="rect(4,4,4,4)" v:tabSpace="42.5197"/>
			<v:textRect cx="40.6507" cy="165.119" width="40" height="17.6036"/>
			<path d="M0 210.19 L0 209.83 L0 164.96 L79.29 164.96" class="st4"/>
			<rect v:rectContext="textBkgnd" x="30.9573" y="160.32" width="19.3867" height="9.59985" class="st6"/>
			<text x="30.96" y="167.52" class="st15" v:langID="2052"><v:paragraph v:horizAlign="1"/><v:tabList/>HTTP</text>		</g>
		<g id="shape48-65" v:mID="48" v:groupContext="shape" v:layerMember="0" transform="translate(524.245,-97.5977)">
			<title>动态连接线.48</title>
			<desc>HTTP</desc>
			<v:textBlock v:margins="rect(4,4,4,4)" v:tabSpace="42.5197"/>
			<v:textRect cx="27.845" cy="208.899" width="40" height="17.6036"/>
			<path d="M5.8 208.9 L6.16 208.9 L49.53 208.9" class="st4"/>
			<rect v:rectContext="textBkgnd" x="18.1516" y="204.099" width="19.3867" height="9.59985" class="st6"/>
			<text x="18.15" y="211.3" class="st15" v:langID="2052"><v:paragraph v:horizAlign="1"/><v:tabList/>HTTP</text>		</g>
		<g id="shape49-74" v:mID="49" v:groupContext="shape" transform="translate(511.904,-83.267)">
			<title>工作表.49</title>
			<desc>音箱命令消息</desc>
			<v:textBlock v:margins="rect(4,4,4,4)" v:tabSpace="42.5197"/>
			<v:textRect cx="41.1024" cy="205.986" width="82.21" height="20"/>
			<rect x="0" y="195.986" width="82.2047" height="20" class="st8"/>
			<text x="17.1" y="209.59" class="st14" v:langID="2052"><v:paragraph v:horizAlign="1"/><v:tabList/>音箱命令消息</text>		</g>
		<g id="shape60-77" v:mID="60" v:groupContext="shape" transform="translate(634.346,13.6634) rotate(90)">
			<title>工作表.60</title>
			<path d="M0 215.99 L161.28 215.99" class="st16"/>
		</g>
		<g id="shape61-80" v:mID="61" v:groupContext="shape" transform="translate(353.163,-190.984)">
			<title>工作表.61</title>
			<desc>互联网← →家</desc>
			<v:textBlock v:margins="rect(4,4,4,4)" v:tabSpace="42.5197"/>
			<v:textRect cx="51.7696" cy="205.986" width="103.54" height="20"/>
			<rect x="0" y="195.986" width="103.539" height="20" class="st8"/>
			<text x="5.92" y="210.19" class="st17" v:langID="2052"><v:paragraph v:horizAlign="1"/><v:tabList/>互联网←   →家</text>		</g>
		<g id="shape62-83" v:mID="62" v:groupContext="shape" transform="translate(342.683,-141.377)">
			<title>工作表.62</title>
			<desc>使用MQTT转发消息 oauth消息、音箱命令消息</desc>
			<v:textBlock v:margins="rect(4,4,4,4)" v:tabSpace="42.5197"/>
			<v:textRect cx="72.5632" cy="205.986" width="145.13" height="20"/>
			<rect x="0" y="195.986" width="145.126" height="20" class="st18"/>
			<text x="28.64" y="202.99" class="st19" v:langID="2052"><v:paragraph v:horizAlign="1"/><v:tabList/>使用MQTT转发消息<v:newlineChar/><tspan
						x="4.33" dy="1.2em" class="st11">（</tspan>oauth消息、音箱命令消息）</text>		</g>
		<g id="shape101-87" v:mID="101" v:groupContext="shape" transform="translate(365.919,-111.771)">
			<title>工作表.101</title>
			<desc>oauth消息</desc>
			<v:textBlock v:margins="rect(4,4,4,4)" v:tabSpace="42.5197"/>
			<v:textRect cx="25.5118" cy="205.986" width="51.03" height="20"/>
			<rect x="0" y="195.986" width="51.0236" height="20" class="st8"/>
			<text x="6.93" y="209.59" class="st14" v:langID="2052"><v:paragraph v:horizAlign="1"/><v:tabList/>oauth消息</text>		</g>
		<g id="shape102-90" v:mID="102" v:groupContext="shape" transform="translate(351.746,-77.5977)">
			<title>工作表.102</title>
			<desc>音箱命令消息</desc>
			<v:textBlock v:margins="rect(4,4,4,4)" v:tabSpace="42.5197"/>
			<v:textRect cx="41.1024" cy="205.986" width="82.21" height="20"/>
			<rect x="0" y="195.986" width="82.2047" height="20" class="st8"/>
			<text x="17.1" y="208.39" class="st14" v:langID="2052"><v:paragraph v:horizAlign="1"/><v:tabList/>音箱命令消息</text>		</g>
		<g id="shape131-93" v:mID="131" v:groupContext="shape" transform="translate(10.0304,-23.785)">
			<title>正方形.131</title>
			<v:userDefs>
				<v:ud v:nameU="visVersion" v:val="VT0(15):26"/>
			</v:userDefs>
			<rect x="0" y="205.923" width="10.0622" height="10.0622" class="st10"/>
		</g>
		<g id="shape132-95" v:mID="132" v:groupContext="shape" transform="translate(22.9272,-18.8161)">
			<title>工作表.132</title>
			<desc>插件功能模块</desc>
			<v:textBlock v:margins="rect(4,4,4,4)" v:tabSpace="42.5197"/>
			<v:textRect cx="29.7638" cy="205.986" width="59.53" height="20"/>
			<rect x="0" y="195.986" width="59.5276" height="20" class="st8"/>
			<text x="5.76" y="209.59" class="st15" v:langID="2052"><v:paragraph v:horizAlign="1"/><v:tabList/>插件功能模块</text>		</g>
		<g id="shape133-98" v:mID="133" v:groupContext="shape" transform="translate(10.0304,-5.21892)">
			<title>正方形.133</title>
			<v:userDefs>
				<v:ud v:nameU="visVersion" v:val="VT0(15):26"/>
			</v:userDefs>
			<path d="M0 215.99 L10.06 215.99 L10.06 205.92 L0 205.92 L0 215.99 Z" class="st12"/>
		</g>
		<g id="shape134-101" v:mID="134" v:groupContext="shape" transform="translate(22.9272,-0.25)">
			<title>工作表.134</title>
			<desc>Home Assistant 功能模块</desc>
			<v:textBlock v:margins="rect(4,4,4,4)" v:tabSpace="42.5197"/>
			<v:textRect cx="51.7696" cy="205.986" width="103.54" height="20"/>
			<rect x="0" y="195.986" width="103.539" height="20" class="st8"/>
			<text x="6.36" y="209.59" class="st15" v:langID="2052"><v:paragraph v:horizAlign="1"/><v:tabList/>Home Assistant 功能模块</text>		</g>
		<g id="shape135-104" v:mID="135" v:groupContext="shape" transform="translate(5.91929,-34.9661)">
			<title>工作表.135</title>
			<desc>图例:</desc>
			<v:textBlock v:margins="rect(4,4,4,4)" v:tabSpace="42.5197"/>
			<v:textRect cx="29.7638" cy="205.986" width="59.53" height="20"/>
			<rect x="0" y="195.986" width="59.5276" height="20" class="st8"/>
			<text x="4" y="209.59" class="st15" v:langID="2052"><v:paragraph/><v:tabList/>图例:</text>		</g>
		<g id="shape142-107" v:mID="142" v:groupContext="shape" v:layerMember="0" transform="translate(360.623,-97.5977)">
			<title>动态连接线.142</title>
			<desc>MQTT</desc>
			<v:textBlock v:margins="rect(4,4,4,4)" v:tabSpace="42.5197"/>
			<v:textRect cx="52.0472" cy="208.899" width="40" height="17.6036"/>
			<path d="M5.8 208.9 L6.16 208.9 L97.93 208.9" class="st4"/>
			<rect v:rectContext="textBkgnd" x="40.9124" y="204.099" width="22.2696" height="9.59985" class="st6"/>
			<text x="40.91" y="211.3" class="st15" v:langID="2052"><v:paragraph v:horizAlign="1"/><v:tabList/>MQTT</text>		</g>
		<g id="shape145-116" v:mID="145" v:groupContext="shape" transform="translate(28.5965,-78.3147)">
			<title>工作表.145</title>
			<desc>音箱命令消息</desc>
			<v:textBlock v:margins="rect(4,4,4,4)" v:tabSpace="42.5197"/>
			<v:textRect cx="41.1024" cy="205.986" width="82.21" height="20"/>
			<rect x="0" y="195.986" width="82.2047" height="20" class="st8"/>
			<text x="17.1" y="209.59" class="st14" v:langID="2052"><v:paragraph v:horizAlign="1"/><v:tabList/>音箱命令消息</text>		</g>
	</g>
</svg>
